<svg width="115" height="64" viewBox="0 0 115 64" fill="none" xmlns="http://www.w3.org/2000/svg">
<path fill-rule="evenodd" clip-rule="evenodd" d="M17.6026 37.7395H9.13794V33.1797H30.671V37.7395H22.1875V53.3473H17.6026V37.7395Z" fill="#305DF0"/>
<path fill-rule="evenodd" clip-rule="evenodd" d="M85.4861 33.1797H105.062V53.3473H100.678V48.7355V44.5666V37.7136H89.9451V44.5666V48.7355V53.3473H85.4861V33.1797Z" fill="#305DF0"/>
<path fill-rule="evenodd" clip-rule="evenodd" d="M40.3456 48.7351H51.0782V37.7132H40.3456V48.7351ZM35.8865 53.3473H55.462V33.1797H35.8865V53.3473Z" fill="#305DF0"/>
<path fill-rule="evenodd" clip-rule="evenodd" d="M80.2593 53.3473H60.6838V33.1797H65.0679V48.8138H68.2797V41.8956H72.6634V48.8138H75.8756V33.1797H80.2593V53.3473Z" fill="#305DF0"/>
<path fill-rule="evenodd" clip-rule="evenodd" d="M70.4716 21.4728L75.8756 29.2301H80.2593L74.8553 21.4728H80.2593V9.11133H60.6838V29.279H65.0675L70.4716 21.4728ZM65.0675 13.6449H75.8756V16.9389H68.3255L65.0675 21.4728V13.6449Z" fill="#305DF0"/>
<path fill-rule="evenodd" clip-rule="evenodd" d="M92.0614 21.473H100.677V16.9392H92.0614V21.473ZM89.8699 13.7235H105.062V9.11133H85.4861V29.279H89.8699V13.7235Z" fill="#305DF0"/>
<path fill-rule="evenodd" clip-rule="evenodd" d="M35.8865 9.11133H40.3079V24.685H51.0405V9.11133H55.462V29.279H35.8865V9.11133Z" fill="#305DF0"/>
<path fill-rule="evenodd" clip-rule="evenodd" d="M17.6026 13.6711H9.13794V9.11133H30.671V13.6711H22.1875V29.279H17.6026V13.6711Z" fill="#305DF0"/>
<path fill-rule="evenodd" clip-rule="evenodd" d="M0 63.1052H114.19V0H0V63.1052ZM4.5425 58.5558H109.648V4.54938H4.5425V58.5558Z" fill="#305DF0"/>
</svg>
