<svg width="30" height="30" viewBox="0 0 30 30" fill="none" xmlns="http://www.w3.org/2000/svg">
<mask id="mask0_1_1020" style="mask-type:alpha" maskUnits="userSpaceOnUse" x="0" y="0" width="30" height="30">
<g clip-path="url(#clip0_1_1020)">
<path d="M12.0478 5.11667C11.4152 2.61667 12.2736 0 15 0C17.7264 0 18.5848 2.61667 17.9521 5.11667C17.7067 6.08668 17.2976 7.79187 16.8888 9.5157C16.3891 11.623 16.1392 12.6767 16.7313 13.2687C17.3233 13.8608 18.377 13.6109 20.4843 13.1112C22.2081 12.7024 23.9133 12.2933 24.8833 12.0478C27.3833 11.4152 30 12.2736 30 15C30 17.7264 27.3833 18.5848 24.8833 17.9521C23.9133 17.7067 22.2081 17.2976 20.4843 16.8888C18.377 16.3891 17.3233 16.1392 16.7313 16.7313C16.1392 17.3233 16.3891 18.377 16.8888 20.4843C17.2976 22.2081 17.7067 23.9133 17.9522 24.8833C18.5848 27.3833 17.7264 30 15 30C12.2736 30 11.4152 27.3833 12.0479 24.8833C12.2933 23.9133 12.7024 22.2081 13.1112 20.4843C13.6109 18.377 13.8608 17.3234 13.2687 16.7313C12.6767 16.1392 11.623 16.3891 9.51571 16.8888C7.79188 17.2976 6.08668 17.7067 5.11667 17.9522C2.61667 18.5848 -4.1307e-07 17.7264 0 15C3.57526e-07 12.2736 2.61667 11.4152 5.11667 12.0479C6.08668 12.2933 7.79187 12.7024 9.5157 13.1112C11.623 13.6109 12.6767 13.8608 13.2687 13.2687C13.8608 12.6767 13.6109 11.623 13.1112 9.51571C12.7024 7.79188 12.2933 6.08668 12.0478 5.11667Z" fill="white"/>
<path d="M7.5 10.95C9.40538 10.95 10.95 9.40538 10.95 7.5C10.95 5.59462 9.40538 4.05 7.5 4.05C5.59462 4.05 4.05 5.59462 4.05 7.5C4.05 9.40538 5.59462 10.95 7.5 10.95Z" fill="white"/>
<path d="M22.5 10.95C24.4054 10.95 25.95 9.40538 25.95 7.5C25.95 5.59462 24.4054 4.05 22.5 4.05C20.5946 4.05 19.05 5.59462 19.05 7.5C19.05 9.40538 20.5946 10.95 22.5 10.95Z" fill="white"/>
<path d="M10.95 22.5C10.95 24.4054 9.40538 25.95 7.5 25.95C5.59462 25.95 4.05 24.4054 4.05 22.5C4.05 20.5946 5.59462 19.05 7.5 19.05C9.40538 19.05 10.95 20.5946 10.95 22.5Z" fill="white"/>
<path d="M22.5 25.95C24.4054 25.95 25.95 24.4054 25.95 22.5C25.95 20.5946 24.4054 19.05 22.5 19.05C20.5946 19.05 19.05 20.5946 19.05 22.5C19.05 24.4054 20.5946 25.95 22.5 25.95Z" fill="white"/>
</g>
</mask>
<g mask="url(#mask0_1_1020)">
<g clip-path="url(#clip1_1_1020)">
<path d="M30 0H0V30H30V0Z" fill="white"/>
<path d="M30 0H0V30H30V0Z" fill="#907CFF" fill-opacity="0.6"/>
<g filter="url(#filter0_f_1_1020)">
<path d="M31.8375 -3H15V17.9625H31.8375V-3Z" fill="#18A0FB"/>
<path d="M19.4812 0H1.6499V19.2375H19.4812V0Z" fill="#907CFF"/>
<path d="M12.6001 11.2498L12.6001 32.5498L33.0001 32.5498L33.0001 11.2498L12.6001 11.2498Z" fill="#EE46D3"/>
</g>
</g>
</g>
<defs>
<filter id="filter0_f_1_1020" x="-14.3501" y="-19" width="63.3501" height="67.5498" filterUnits="userSpaceOnUse" color-interpolation-filters="sRGB">
<feFlood flood-opacity="0" result="BackgroundImageFix"/>
<feBlend mode="normal" in="SourceGraphic" in2="BackgroundImageFix" result="shape"/>
<feGaussianBlur stdDeviation="8" result="effect1_foregroundBlur_1_1020"/>
</filter>
<clipPath id="clip0_1_1020">
<rect width="30" height="30" fill="white"/>
</clipPath>
<clipPath id="clip1_1_1020">
<rect width="30" height="30" fill="white"/>
</clipPath>
</defs>
</svg>
