<svg width="22" height="22" viewBox="0 0 22 22" fill="none" xmlns="http://www.w3.org/2000/svg">
<g clip-path="url(#clip0_1_996)">
<path d="M21.1693 9.08637L12.1957 9.08594C11.7995 9.08594 11.4783 9.40709 11.4783 9.80334V12.67C11.4783 13.0662 11.7995 13.3874 12.1957 13.3874H17.2491C16.6957 14.8235 15.6629 16.0261 14.3452 16.7903L16.5 20.5204C19.9565 18.5213 22 15.0138 22 11.0874C22 10.5284 21.9588 10.1287 21.8764 9.67869C21.8137 9.33679 21.5169 9.08637 21.1693 9.08637Z" fill="#167EE6"/>
<path d="M11.0002 17.6964C8.52714 17.6964 6.36822 16.3452 5.2087 14.3457L1.47876 16.4956C3.3769 19.7854 6.93274 22.0007 11.0002 22.0007C12.9955 22.0007 14.8783 21.4635 16.5002 20.5272V20.5221L14.3454 16.792C13.3598 17.3637 12.2192 17.6964 11.0002 17.6964Z" fill="#12B347"/>
<path d="M16.5 20.5262V20.5211L14.3452 16.791C13.3596 17.3626 12.2192 17.6954 11 17.6954V21.9997C12.9953 21.9997 14.8782 21.4625 16.5 20.5262Z" fill="#0F993E"/>
<path d="M4.30435 11.0007C4.30435 9.78177 4.63702 8.64133 5.20854 7.65576L1.4786 5.50586C0.537195 7.12264 0 9.00029 0 11.0007C0 13.0012 0.537195 14.8788 1.4786 16.4956L5.20854 14.3457C4.63702 13.3602 4.30435 12.2197 4.30435 11.0007Z" fill="#FFD500"/>
<path d="M11.0002 4.30435C12.6128 4.30435 14.0941 4.87738 15.2511 5.83056C15.5366 6.06568 15.9515 6.04871 16.2129 5.78725L18.244 3.75611C18.5407 3.45946 18.5196 2.97387 18.2027 2.69895C16.2641 1.0172 13.7419 0 11.0002 0C6.93274 0 3.3769 2.21534 1.47876 5.50511L5.2087 7.65501C6.36822 5.65555 8.52714 4.30435 11.0002 4.30435Z" fill="#FF4B26"/>
<path d="M15.251 5.83056C15.5364 6.06568 15.9513 6.04871 16.2128 5.78725L18.2439 3.75611C18.5405 3.45946 18.5194 2.97387 18.2025 2.69895C16.264 1.01716 13.7417 0 11 0V4.30435C12.6126 4.30435 14.094 4.87738 15.251 5.83056Z" fill="#D93F21"/>
</g>
<defs>
<clipPath id="clip0_1_996">
<rect width="22" height="22" fill="white"/>
</clipPath>
</defs>
</svg>
