<svg width="21" height="17" viewBox="0 0 21 17" fill="none" xmlns="http://www.w3.org/2000/svg">
<g clip-path="url(#clip0_1_991)">
<path fill-rule="evenodd" clip-rule="evenodd" d="M1.82309 1.41832L8.03668 7.63461C9.39189 8.9872 11.6072 8.98837 12.9635 7.63461L19.1771 1.41832C19.2397 1.35574 19.2305 1.25269 19.1579 1.20206C18.5242 0.760076 17.7531 0.498047 16.9225 0.498047H4.07772C3.24707 0.498047 2.47598 0.760121 1.84223 1.20206C1.76963 1.25269 1.76051 1.35574 1.82309 1.41832ZM0.162598 4.41312C0.162598 3.75996 0.324541 3.14282 0.609795 2.60039C0.654402 2.51553 0.767471 2.49837 0.835258 2.56616L6.97019 8.7011C8.91293 10.6467 12.0861 10.6478 14.03 8.7011L20.165 2.56616C20.2327 2.49837 20.3458 2.51553 20.3904 2.60039C20.6756 3.14282 20.8376 3.76 20.8376 4.41312V12.5861C20.8376 14.7465 19.0802 16.5012 16.9225 16.5012H4.07772C1.92003 16.5012 0.162598 14.7465 0.162598 12.5861V4.41312Z" fill="#5F82F0"/>
</g>
<defs>
<clipPath id="clip0_1_991">
<rect width="21" height="17" fill="white"/>
</clipPath>
</defs>
</svg>
