<svg width="15" height="24" viewBox="0 0 15 24" fill="none" xmlns="http://www.w3.org/2000/svg">
<g clip-path="url(#clip0_1_975)">
<path d="M11.9444 0H3.05556C1.37072 0 0 1.31589 0 2.93333V21.0667C0 22.6841 1.37072 24 3.05556 24H11.9444C13.6293 24 15 22.6841 15 21.0667V2.93333C15 1.31589 13.6293 0 11.9444 0ZM8.61111 21.8667H6.38889C5.92867 21.8667 5.55556 21.5085 5.55556 21.0667C5.55556 20.6249 5.92867 20.2667 6.38889 20.2667H8.61111C9.07133 20.2667 9.44444 20.6249 9.44444 21.0667C9.44444 21.5085 9.07133 21.8667 8.61111 21.8667ZM9.64815 3.73333H5.35185C4.89163 3.73333 4.51852 3.37515 4.51852 2.93333C4.51852 2.49152 4.89163 2.13333 5.35185 2.13333H9.64815C10.1084 2.13333 10.4815 2.49152 10.4815 2.93333C10.4815 3.37515 10.1084 3.73333 9.64815 3.73333Z" fill="#5F82F0"/>
<rect x="3" y="20" width="9" height="2" fill="#5F82F0"/>
<path d="M3 2H12C12 3.10457 11.1046 4 10 4H5C3.89543 4 3 3.10457 3 2Z" fill="#5F82F0"/>
<rect x="4" y="19.3008" width="7" height="1.5" rx="0.75" fill="#F9F9F9"/>
<circle cx="7.44995" cy="3.25" r="1.25" fill="#F9F9F9"/>
</g>
<defs>
<clipPath id="clip0_1_975">
<rect width="15" height="24" fill="white"/>
</clipPath>
</defs>
</svg>
