<svg width="28" height="28" viewBox="0 0 28 28" fill="none" xmlns="http://www.w3.org/2000/svg">
<circle cx="14" cy="14" r="14" fill="#414141"/>
<path d="M17.9477 11.0525L16.0911 9.2236L16.0907 9.2232C15.9454 9.079 15.8634 8.88302 15.8627 8.67836C15.862 8.47371 15.9426 8.27715 16.0868 8.13193C16.231 7.98671 16.427 7.90472 16.6316 7.90399C16.8363 7.90327 17.0328 7.98387 17.1781 8.12806C17.1781 8.12806 17.1781 8.12807 17.1781 8.12807L20.3633 11.2756C20.3634 11.2756 20.3635 11.2757 20.3635 11.2757C20.4363 11.3471 20.4942 11.4323 20.5339 11.5262C20.5736 11.6202 20.5943 11.7212 20.5947 11.8232L20.5947 11.8258C20.5919 12.0255 20.5117 12.2163 20.371 12.358L20.3701 12.359L17.1843 15.507C17.1843 15.507 17.1843 15.507 17.1842 15.5071L17.1841 15.5071L17.0846 15.4064C16.9673 15.5227 16.809 15.5883 16.6438 15.589L17.9477 11.0525ZM17.9477 11.0525H11.909C10.786 11.0525 9.709 11.4986 8.91493 12.2927C8.12085 13.0868 7.67474 14.1638 7.67474 15.2867C7.67474 16.4097 8.12085 17.4867 8.91493 18.2808C9.709 19.0749 10.786 19.521 11.909 19.521H13.4894C13.6939 19.521 13.8901 19.4397 14.0348 19.2951C14.1794 19.1505 14.2607 18.9543 14.2607 18.7497C14.2607 18.5452 14.1794 18.349 14.0348 18.2043C13.8901 18.0597 13.6939 17.9784 13.4894 17.9784H11.909C11.1951 17.9784 10.5105 17.6948 10.0057 17.19C9.50092 16.6853 9.21733 16.0006 9.21733 15.2867C9.21733 14.5729 9.50092 13.8882 10.0057 13.3835C10.5105 12.8787 11.1951 12.5951 11.909 12.5951H17.9414L17.9477 11.0525ZM16.096 15.4996C16.0961 15.4997 16.0962 15.4998 16.0963 15.5L16.1968 15.4001L16.0956 15.4992C16.0957 15.4994 16.0958 15.4995 16.096 15.4996Z" fill="white" stroke="white" stroke-width="0.283333"/>
</svg>
